<?xml version="1.0" encoding="UTF-8"?>
<!--Generator: Apple Native CoreSVG 149-->
<!DOCTYPE svg
PUBLIC "-//W3C//DTD SVG 1.1//EN"
       "http://www.w3.org/Graphics/SVG/1.1/DTD/svg11.dtd">
<svg version="1.1" xmlns="http://www.w3.org/2000/svg" xmlns:xlink="http://www.w3.org/1999/xlink" width="3300" height="2200">
 <!--glyph: "uni1003A1.medium", point size: 100.000000, font version: "Version 16.0d18e1", template writer version: "8"-->
 <g id="Notes">
  <rect height="2200" id="artboard" style="fill:white;opacity:1" width="3300" x="0" y="0"/>
  <line id="" style="fill:none;stroke:black;opacity:1;stroke-width:0.5;" x1="263" x2="3036" y1="292" y2="292"/>
  <text style="stroke:none;fill:black;font-family:-apple-system,&quot;SF Pro Display&quot;,&quot;SF Pro Text&quot;,Helvetica,sans-serif;font-weight:bold;" transform="matrix(1 0 0 1 263 322)">Weight/Scale Variations</text>
  <text style="stroke:none;fill:black;font-family:-apple-system,&quot;SF Pro Display&quot;,&quot;SF Pro Text&quot;,Helvetica,sans-serif;text-anchor:middle;" transform="matrix(1 0 0 1 559.711 322)">Ultralight</text>
  <text style="stroke:none;fill:black;font-family:-apple-system,&quot;SF Pro Display&quot;,&quot;SF Pro Text&quot;,Helvetica,sans-serif;text-anchor:middle;" transform="matrix(1 0 0 1 856.422 322)">Thin</text>
  <text style="stroke:none;fill:black;font-family:-apple-system,&quot;SF Pro Display&quot;,&quot;SF Pro Text&quot;,Helvetica,sans-serif;text-anchor:middle;" transform="matrix(1 0 0 1 1153.13 322)">Light</text>
  <text style="stroke:none;fill:black;font-family:-apple-system,&quot;SF Pro Display&quot;,&quot;SF Pro Text&quot;,Helvetica,sans-serif;text-anchor:middle;" transform="matrix(1 0 0 1 1449.84 322)">Regular</text>
  <text style="stroke:none;fill:black;font-family:-apple-system,&quot;SF Pro Display&quot;,&quot;SF Pro Text&quot;,Helvetica,sans-serif;text-anchor:middle;" transform="matrix(1 0 0 1 1746.56 322)">Medium</text>
  <text style="stroke:none;fill:black;font-family:-apple-system,&quot;SF Pro Display&quot;,&quot;SF Pro Text&quot;,Helvetica,sans-serif;text-anchor:middle;" transform="matrix(1 0 0 1 2043.27 322)">Semibold</text>
  <text style="stroke:none;fill:black;font-family:-apple-system,&quot;SF Pro Display&quot;,&quot;SF Pro Text&quot;,Helvetica,sans-serif;text-anchor:middle;" transform="matrix(1 0 0 1 2339.98 322)">Bold</text>
  <text style="stroke:none;fill:black;font-family:-apple-system,&quot;SF Pro Display&quot;,&quot;SF Pro Text&quot;,Helvetica,sans-serif;text-anchor:middle;" transform="matrix(1 0 0 1 2636.69 322)">Heavy</text>
  <text style="stroke:none;fill:black;font-family:-apple-system,&quot;SF Pro Display&quot;,&quot;SF Pro Text&quot;,Helvetica,sans-serif;text-anchor:middle;" transform="matrix(1 0 0 1 2933.4 322)">Black</text>
  <line id="" style="fill:none;stroke:black;opacity:1;stroke-width:0.5;" x1="263" x2="3036" y1="1903" y2="1903"/>
  <g id="" transform="matrix(1 0 0 1 263 1933)">
   <path d="M9.24805 0.830078C13.5547 0.830078 17.1387-2.74414 17.1387-7.05078C17.1387-11.3574 13.5449-14.9316 9.23828-14.9316C4.94141-14.9316 1.36719-11.3574 1.36719-7.05078C1.36719-2.74414 4.95117 0.830078 9.24805 0.830078ZM9.24805-0.654297C5.70312-0.654297 2.87109-3.49609 2.87109-7.05078C2.87109-10.6055 5.69336-13.4473 9.23828-13.4473C12.793-13.4473 15.6348-10.6055 15.6445-7.05078C15.6543-3.49609 12.8027-0.654297 9.24805-0.654297ZM6.39648-6.31836L8.50586-6.31836L8.50586-4.19922C8.50586-3.75977 8.79883-3.45703 9.22852-3.45703C9.67773-3.45703 9.9707-3.75977 9.9707-4.19922L9.9707-6.31836L12.0996-6.31836C12.5391-6.31836 12.8418-6.61133 12.8418-7.04102C12.8418-7.48047 12.5391-7.7832 12.0996-7.7832L9.9707-7.7832L9.9707-9.89258C9.9707-10.3418 9.67773-10.6445 9.22852-10.6445C8.79883-10.6445 8.50586-10.3418 8.50586-9.89258L8.50586-7.7832L6.39648-7.7832C5.94727-7.7832 5.64453-7.48047 5.64453-7.04102C5.64453-6.61133 5.94727-6.31836 6.39648-6.31836Z"/>
  </g>
  <g id="" transform="matrix(1 0 0 1 281.506 1933)">
   <path d="M11.709 2.91016C17.1582 2.91016 21.6699-1.61133 21.6699-7.05078C21.6699-12.5 17.1484-17.0117 11.6992-17.0117C6.25977-17.0117 1.74805-12.5 1.74805-7.05078C1.74805-1.61133 6.26953 2.91016 11.709 2.91016ZM11.709 1.25C7.09961 1.25 3.41797-2.44141 3.41797-7.05078C3.41797-11.6602 7.08984-15.3516 11.6992-15.3516C16.3086-15.3516 20-11.6602 20.0098-7.05078C20.0195-2.44141 16.3184 1.25 11.709 1.25ZM7.98828-6.23047L10.8789-6.23047L10.8789-3.32031C10.8789-2.83203 11.2109-2.5 11.6895-2.5C12.1777-2.5 12.5195-2.83203 12.5195-3.32031L12.5195-6.23047L15.4297-6.23047C15.918-6.23047 16.25-6.5625 16.25-7.04102C16.25-7.5293 15.918-7.87109 15.4297-7.87109L12.5195-7.87109L12.5195-10.7617C12.5195-11.2695 12.1777-11.6016 11.6895-11.6016C11.2109-11.6016 10.8789-11.2598 10.8789-10.7617L10.8789-7.87109L7.98828-7.87109C7.48047-7.87109 7.14844-7.5293 7.14844-7.04102C7.14844-6.5625 7.49023-6.23047 7.98828-6.23047Z"/>
  </g>
  <g id="" transform="matrix(1 0 0 1 304.924 1933)">
   <path d="M14.9707 5.66406C21.9336 5.66406 27.6953-0.0976562 27.6953-7.05078C27.6953-14.0137 21.9238-19.7754 14.9609-19.7754C8.00781-19.7754 2.25586-14.0137 2.25586-7.05078C2.25586-0.0976562 8.01758 5.66406 14.9707 5.66406ZM14.9707 3.84766C8.93555 3.84766 4.08203-1.01562 4.08203-7.05078C4.08203-13.0957 8.92578-17.9492 14.9609-17.9492C21.0059-17.9492 25.8594-13.0957 25.8691-7.05078C25.8789-1.01562 21.0156 3.84766 14.9707 3.84766ZM10.0586-6.14258L14.0625-6.14258L14.0625-2.12891C14.0625-1.5918 14.4336-1.2207 14.9512-1.2207C15.4883-1.2207 15.8594-1.5918 15.8594-2.12891L15.8594-6.14258L19.8828-6.14258C20.4102-6.14258 20.791-6.51367 20.791-7.03125C20.791-7.56836 20.4199-7.94922 19.8828-7.94922L15.8594-7.94922L15.8594-11.9531C15.8594-12.5098 15.4883-12.8809 14.9512-12.8809C14.4336-12.8809 14.0625-12.5 14.0625-11.9531L14.0625-7.94922L10.0586-7.94922C9.50195-7.94922 9.13086-7.56836 9.13086-7.03125C9.13086-6.51367 9.51172-6.14258 10.0586-6.14258Z"/>
  </g>
  <text style="stroke:none;fill:black;font-family:-apple-system,&quot;SF Pro Display&quot;,&quot;SF Pro Text&quot;,Helvetica,sans-serif;font-weight:bold;" transform="matrix(1 0 0 1 263 1953)">Design Variations</text>
  <text style="stroke:none;fill:black;font-family:-apple-system,&quot;SF Pro Display&quot;,&quot;SF Pro Text&quot;,Helvetica,sans-serif;" transform="matrix(1 0 0 1 263 1971)">Symbols are supported in up to nine weights and three scales.</text>
  <text style="stroke:none;fill:black;font-family:-apple-system,&quot;SF Pro Display&quot;,&quot;SF Pro Text&quot;,Helvetica,sans-serif;" transform="matrix(1 0 0 1 263 1989)">For optimal layout with text and other symbols, vertically align</text>
  <text style="stroke:none;fill:black;font-family:-apple-system,&quot;SF Pro Display&quot;,&quot;SF Pro Text&quot;,Helvetica,sans-serif;" transform="matrix(1 0 0 1 263 2007)">symbols with the adjacent text.</text>
  <line id="" style="fill:none;stroke:#00AEEF;stroke-width:0.5;opacity:1.0;" x1="776" x2="776" y1="1919" y2="1933"/>
  <g id="" transform="matrix(1 0 0 1 776 1933)">
   <path d="M3.31055 0.126953C3.82812 0.126953 4.08203-0.0683594 4.26758-0.605469L5.52734-4.0625L11.2891-4.0625L12.5488-0.605469C12.7344-0.0683594 12.9883 0.126953 13.4961 0.126953C14.0137 0.126953 14.3457-0.185547 14.3457-0.673828C14.3457-0.839844 14.3164-0.986328 14.2383-1.20117L9.6582-13.3887C9.43359-13.9941 9.0332-14.2871 8.4082-14.2871C7.80273-14.2871 7.39258-13.9941 7.17773-13.3984L2.59766-1.19141C2.51953-0.976562 2.49023-0.830078 2.49023-0.664062C2.49023-0.175781 2.80273 0.126953 3.31055 0.126953ZM6.00586-5.53711L8.37891-12.1094L8.42773-12.1094L10.8008-5.53711Z"/>
  </g>
  <line id="" style="fill:none;stroke:#00AEEF;stroke-width:0.5;opacity:1.0;" x1="792.836" x2="792.836" y1="1919" y2="1933"/>
  <text style="stroke:none;fill:black;font-family:-apple-system,&quot;SF Pro Display&quot;,&quot;SF Pro Text&quot;,Helvetica,sans-serif;font-weight:bold;" transform="matrix(1 0 0 1 776 1953)">Margins</text>
  <text style="stroke:none;fill:black;font-family:-apple-system,&quot;SF Pro Display&quot;,&quot;SF Pro Text&quot;,Helvetica,sans-serif;" transform="matrix(1 0 0 1 776 1971)">Leading and trailing margins on the left and right side of each symbol</text>
  <text style="stroke:none;fill:black;font-family:-apple-system,&quot;SF Pro Display&quot;,&quot;SF Pro Text&quot;,Helvetica,sans-serif;" transform="matrix(1 0 0 1 776 1989)">can be adjusted by modifying the x-location of the margin guidelines.</text>
  <text style="stroke:none;fill:black;font-family:-apple-system,&quot;SF Pro Display&quot;,&quot;SF Pro Text&quot;,Helvetica,sans-serif;" transform="matrix(1 0 0 1 776 2007)">Modifications are automatically applied proportionally to all</text>
  <text style="stroke:none;fill:black;font-family:-apple-system,&quot;SF Pro Display&quot;,&quot;SF Pro Text&quot;,Helvetica,sans-serif;" transform="matrix(1 0 0 1 776 2025)">scales and weights.</text>
  <g id="" transform="matrix(1 0 0 1 1289 1933)">
   <path d="M2.8418 1.86523L4.54102 3.57422C5.40039 4.44336 6.38672 4.38477 7.31445 3.35938L17.4902-7.85156C17.7539-7.76367 18.0273-7.7832 18.3398-7.8418L19.4043-8.03711L20.0684-7.36328L20.0293-6.80664C19.9902-6.30859 20.1172-5.92773 20.6055-5.44922L21.3672-4.70703C21.8457-4.22852 22.4609-4.19922 22.9297-4.66797L25.8398-7.58789C26.3086-8.05664 26.2891-8.65234 25.8105-9.13086L25.0391-9.89258C24.5605-10.3711 24.1895-10.5273 23.7109-10.4883L23.1348-10.4395L22.4902-11.0742L22.7344-12.1973C22.8613-12.7637 22.7051-13.2031 22.1191-13.7891L19.9219-15.9766C16.582-19.2969 12.1484-19.2188 9.25781-16.3281C8.83789-15.918 8.80859-15.3418 9.04297-14.9512C9.27734-14.5898 9.73633-14.3555 10.3809-14.5215C11.8457-14.8633 13.3691-14.9219 14.7949-13.9844L14.209-12.5293C14.0137-12.0508 13.9844-11.6504 14.1113-11.2891L3.04688-0.898438C2.06055 0.0195312 1.98242 0.996094 2.8418 1.86523ZM10.752-15.957C13.1836-17.7344 16.4746-17.4316 18.7012-15.2051L21.1328-12.793C21.3672-12.5586 21.4062-12.373 21.3379-12.0312L21.0156-10.5469L22.5195-9.0625L23.5059-9.12109C23.7598-9.13086 23.8379-9.11133 24.0332-8.91602L24.6094-8.33984L22.168-5.89844L21.5918-6.47461C21.3965-6.66992 21.3672-6.74805 21.377-7.01172L21.4453-7.98828L19.9512-9.47266L18.4277-9.21875C18.1055-9.15039 17.959-9.17969 17.7148-9.41406L15.7129-11.416C15.459-11.6504 15.4297-11.8164 15.5859-12.1875L16.4648-14.2773C14.9023-15.7324 12.8711-16.3574 10.8398-15.7617C10.6836-15.7227 10.625-15.8496 10.752-15.957ZM5.27344 2.30469L4.10156 1.14258C3.63281 0.683594 3.74023 0.341797 4.14062-0.0195312L14.9512-10.1953L16.416-8.71094L6.42578 2.27539C6.07422 2.67578 5.74219 2.77344 5.27344 2.30469Z"/>
  </g>
  <text style="stroke:none;fill:black;font-family:-apple-system,&quot;SF Pro Display&quot;,&quot;SF Pro Text&quot;,Helvetica,sans-serif;font-weight:bold;" transform="matrix(1 0 0 1 1289 1953)">Exporting</text>
  <text style="stroke:none;fill:black;font-family:-apple-system,&quot;SF Pro Display&quot;,&quot;SF Pro Text&quot;,Helvetica,sans-serif;" transform="matrix(1 0 0 1 1289 1971)">Symbols should be outlined when exporting to ensure the</text>
  <text style="stroke:none;fill:black;font-family:-apple-system,&quot;SF Pro Display&quot;,&quot;SF Pro Text&quot;,Helvetica,sans-serif;" transform="matrix(1 0 0 1 1289 1989)">design is preserved when submitting to Xcode.</text>
  <text id="template-version" style="stroke:none;fill:black;font-family:-apple-system,&quot;SF Pro Display&quot;,&quot;SF Pro Text&quot;,Helvetica,sans-serif;text-anchor:end;" transform="matrix(1 0 0 1 3036 1933)">Template v.2.0</text>
  <text style="stroke:none;fill:black;font-family:-apple-system,&quot;SF Pro Display&quot;,&quot;SF Pro Text&quot;,Helvetica,sans-serif;text-anchor:end;" transform="matrix(1 0 0 1 3036 1951)">Requires Xcode 12 or greater</text>
  <text style="stroke:none;fill:black;font-family:-apple-system,&quot;SF Pro Display&quot;,&quot;SF Pro Text&quot;,Helvetica,sans-serif;text-anchor:end;" transform="matrix(1 0 0 1 3036 1969)">Generated from lock.fill</text>
  <text style="stroke:none;fill:black;font-family:-apple-system,&quot;SF Pro Display&quot;,&quot;SF Pro Text&quot;,Helvetica,sans-serif;text-anchor:end;" transform="matrix(1 0 0 1 3036 1987)">Typeset at 100 points</text>
  <text style="stroke:none;fill:black;font-family:-apple-system,&quot;SF Pro Display&quot;,&quot;SF Pro Text&quot;,Helvetica,sans-serif;" transform="matrix(1 0 0 1 263 726)">Small</text>
  <text style="stroke:none;fill:black;font-family:-apple-system,&quot;SF Pro Display&quot;,&quot;SF Pro Text&quot;,Helvetica,sans-serif;" transform="matrix(1 0 0 1 263 1156)">Medium</text>
  <text style="stroke:none;fill:black;font-family:-apple-system,&quot;SF Pro Display&quot;,&quot;SF Pro Text&quot;,Helvetica,sans-serif;" transform="matrix(1 0 0 1 263 1586)">Large</text>
 </g>
 <g id="Guides">
  <g id="H-reference" style="fill:#27AAE1;stroke:none;" transform="matrix(1 0 0 1 339 696)">
   <path d="M0.976562 0L3.66211 0L12.9883-24.4629L45.752-24.4629L55.127 0L57.7637 0L30.6152-70.459L28.125-70.459ZM29.3457-67.1387L29.4434-67.1387L44.873-26.709L13.8672-26.709Z"/>
  </g>
  <line id="Baseline-S" style="fill:none;stroke:#27AAE1;opacity:1;stroke-width:0.5;" x1="263" x2="3036" y1="696" y2="696"/>
  <line id="Capline-S" style="fill:none;stroke:#27AAE1;opacity:1;stroke-width:0.5;" x1="263" x2="3036" y1="625.541" y2="625.541"/>
  <g id="H-reference" style="fill:#27AAE1;stroke:none;" transform="matrix(1 0 0 1 339 1126)">
   <path d="M0.976562 0L3.66211 0L12.9883-24.4629L45.752-24.4629L55.127 0L57.7637 0L30.6152-70.459L28.125-70.459ZM29.3457-67.1387L29.4434-67.1387L44.873-26.709L13.8672-26.709Z"/>
  </g>
  <line id="Baseline-M" style="fill:none;stroke:#27AAE1;opacity:1;stroke-width:0.5;" x1="263" x2="3036" y1="1126" y2="1126"/>
  <line id="Capline-M" style="fill:none;stroke:#27AAE1;opacity:1;stroke-width:0.5;" x1="263" x2="3036" y1="1055.54" y2="1055.54"/>
  <g id="H-reference" style="fill:#27AAE1;stroke:none;" transform="matrix(1 0 0 1 339 1556)">
   <path d="M0.976562 0L3.66211 0L12.9883-24.4629L45.752-24.4629L55.127 0L57.7637 0L30.6152-70.459L28.125-70.459ZM29.3457-67.1387L29.4434-67.1387L44.873-26.709L13.8672-26.709Z"/>
  </g>
  <line id="Baseline-L" style="fill:none;stroke:#27AAE1;opacity:1;stroke-width:0.5;" x1="263" x2="3036" y1="1556" y2="1556"/>
  <line id="Capline-L" style="fill:none;stroke:#27AAE1;opacity:1;stroke-width:0.5;" x1="263" x2="3036" y1="1485.54" y2="1485.54"/>
  <line id="left-margin" style="fill:none;stroke:#00AEEF;stroke-width:0.5;opacity:1.0;" x1="1396.62" x2="1396.62" y1="1030.79" y2="1150.12"/>
  <line id="right-margin" style="fill:none;stroke:#00AEEF;stroke-width:0.5;opacity:1.0;" x1="1503.07" x2="1503.07" y1="1030.79" y2="1150.12"/>
 </g>
 <g id="Symbols">
  <g id="Black-L" transform="matrix(1 0 0 1 2860.48 1556)">
   <path d="M40.8203 28.418L105.029 28.418C114.6 28.418 119.238 23.6816 119.238 13.3301L119.238-36.2793C119.238-45.5078 115.479-50.293 107.715-51.123L107.715-65.7715C107.715-90.625 90.2832-102.441 72.9492-102.441C55.5664-102.441 38.1836-90.625 38.1836-65.7715L38.1836-51.0254C30.6641-50.0977 26.6113-45.3125 26.6113-36.2793L26.6113 13.3301C26.6113 23.6816 31.3477 28.418 40.8203 28.418ZM56.6406-66.6016C56.6406-77.832 63.623-84.5215 72.9492-84.5215C82.2266-84.5215 89.209-77.832 89.209-66.6016L89.209-51.2695L56.6406-51.2695Z"/>
  </g>
  <g id="Heavy-L" transform="matrix(1 0 0 1 2564.79 1556)">
   <path d="M40.2832 27.4902L103.516 27.4902C112.744 27.4902 117.236 22.9492 117.236 12.9395L117.236-35.9863C117.236-44.9707 113.525-49.5605 105.957-50.3418L105.957-65.1367C105.957-89.502 89.1113-101.318 71.875-101.318C54.6387-101.318 37.8418-89.502 37.8418-65.1367L37.8418-50.1953C30.5664-49.2676 26.5625-44.6777 26.5625-35.9863L26.5625 12.9395C26.5625 22.9492 31.1035 27.4902 40.2832 27.4902ZM54.0039-66.0156C54.0039-78.418 61.7676-85.6934 71.875-85.6934C82.0312-85.6934 89.7949-78.418 89.7949-66.0156L89.7949-50.4395L54.0039-50.3906Z"/>
  </g>
  <g id="Bold-L" transform="matrix(1 0 0 1 2269.25 1556)">
   <path d="M39.6484 26.416L101.855 26.416C110.645 26.416 114.941 22.0703 114.941 12.5L114.941-35.6445C114.941-44.3359 111.328-48.7305 103.955-49.4141L103.955-64.4531C103.955-88.2324 87.8418-100.098 70.752-100.098C53.6133-100.098 37.5-88.2324 37.5-64.4531L37.5-49.2676C30.4688-48.3887 26.5137-43.9941 26.5137-35.6445L26.5137 12.5C26.5137 22.0703 30.8594 26.416 39.6484 26.416ZM51.0742-65.3809C51.0742-79.0527 59.7168-87.0117 70.752-87.0117C81.7383-87.0117 90.4297-79.0527 90.4297-65.3809L90.4297-49.4629L51.0742-49.4629Z"/>
  </g>
  <g id="Semibold-L" transform="matrix(1 0 0 1 1973.32 1556)">
   <path d="M39.209 25.6836L100.684 25.6836C109.229 25.6836 113.379 21.4844 113.379 12.207L113.379-35.4004C113.379-43.8965 109.863-48.1445 102.637-48.7793L102.637-63.9648C102.637-87.4023 86.9629-99.2676 69.9219-99.2676C52.9297-99.2676 37.2559-87.4023 37.2559-63.9648L37.2559-48.584C30.4199-47.7539 26.4648-43.5059 26.4648-35.4004L26.4648 12.207C26.4648 21.4844 30.6641 25.6836 39.209 25.6836ZM49.0234-64.8926C49.0234-79.541 58.252-87.9395 69.9219-87.9395C81.5918-87.9395 90.8203-79.541 90.8203-64.8926L90.8203-48.8281L49.0234-48.7793Z"/>
  </g>
  <g id="Medium-L" transform="matrix(1 0 0 1 1677.22 1556)">
   <path d="M38.8672 25.1465L99.7559 25.1465C108.105 25.1465 112.207 21.0449 112.207 11.9629L112.207-35.2051C112.207-43.5547 108.691-47.7051 101.611-48.291L101.611-63.623C101.611-86.7676 86.2793-98.584 69.3359-98.584C52.3926-98.584 37.0605-86.7676 37.0605-63.623L37.0605-48.0957C30.3711-47.2656 26.4648-43.1641 26.4648-35.2051L26.4648 11.9629C26.4648 21.0449 30.5664 25.1465 38.8672 25.1465ZM47.5098-64.5508C47.5098-79.8828 57.1777-88.623 69.3359-88.623C81.4453-88.623 91.1621-79.8828 91.1621-64.5508L91.1621-48.3398L47.5098-48.291Z"/>
  </g>
  <g id="Regular-L" transform="matrix(1 0 0 1 1381.31 1556)">
   <path d="M38.4766 24.4141L98.6328 24.4141C106.689 24.4141 110.645 20.459 110.645 11.6699L110.645-35.0098C110.645-43.1152 107.227-47.1191 100.244-47.6562L100.244-63.1348C100.244-85.8887 85.4004-97.7539 68.5547-97.7539C51.6602-97.7539 36.8164-85.8887 36.8164-63.1348L36.8164-47.4609C30.3223-46.6797 26.416-42.6758 26.416-35.0098L26.416 11.6699C26.416 20.459 30.3711 24.4141 38.4766 24.4141ZM45.459-64.1113C45.459-80.3223 55.7617-89.5508 68.5547-89.5508C81.2988-89.5508 91.6016-80.3223 91.6016-64.1113L91.6016-47.7051L45.459-47.6074Z"/>
  </g>
  <g id="Light-L" transform="matrix(1 0 0 1 1084.82 1556)">
   <path d="M38.0859 24.4141L98.5352 24.4141C106.543 24.4141 110.498 20.5566 110.498 11.8164L110.498-35.4004C110.498-43.75 106.885-47.6562 99.5605-47.9492L99.5605-62.8906C99.5605-84.3262 85.6934-96.7773 68.3105-96.7773C50.9277-96.7773 37.0605-84.3262 37.0605-62.8906L37.0605-47.8516C30.0781-47.3633 26.1719-43.457 26.1719-35.4004L26.1719 11.8164C26.1719 20.5566 30.0781 24.4141 38.0859 24.4141ZM43.7012-63.4277C43.7012-80.127 54.1992-90.4785 68.3105-90.4785C82.373-90.4785 92.9688-80.127 92.9688-63.4277L92.9688-47.998L43.7012-47.9492Z"/>
  </g>
  <g id="Thin-L" transform="matrix(1 0 0 1 788.405 1556)">
   <path d="M37.5977 24.4141L98.4375 24.4141C106.348 24.4141 110.254 20.6543 110.254 11.9629L110.254-35.9375C110.254-44.5312 106.445-48.291 98.6816-48.3398L98.6816-62.5977C98.6816-82.2754 86.084-95.459 68.0176-95.459C49.9512-95.459 37.4023-82.2754 37.4023-62.5977L37.4023-48.3398C29.6875-48.2422 25.8301-44.4824 25.8301-35.9375L25.8301 11.9629C25.8301 20.6543 29.6875 24.4141 37.5977 24.4141ZM41.3086-62.5488C41.3086-79.8828 52.1484-91.6992 68.0176-91.6992C83.7891-91.6992 94.7266-79.8828 94.7266-62.5488L94.7266-48.3398L41.3086-48.3398Z"/>
  </g>
  <g id="Ultralight-L" transform="matrix(1 0 0 1 491.84 1556)">
   <path d="M37.3535 24.4141L98.3887 24.4141C106.25 24.4141 110.107 20.752 110.107 12.0605L110.107-36.2305C110.107-44.873 106.25-48.5352 98.3887-48.5352L98.1934-48.5352L98.1934-62.4512C98.1934-81.25 86.2793-94.7754 67.8711-94.7754C49.4629-94.7754 37.5488-81.25 37.5488-62.4512L37.5488-48.584L37.207-48.584C29.3945-48.584 25.6348-44.873 25.6348-36.2305L25.6348 12.0605C25.6348 20.752 29.4922 24.4141 37.3535 24.4141ZM40.0879-62.0605C40.0879-79.7852 51.123-92.334 67.8711-92.334C84.5703-92.334 95.6543-79.7852 95.6543-62.0605L95.6543-48.5352L40.0879-48.584Z"/>
  </g>
  <g id="Black-M" transform="matrix(1 0 0 1 2875.59 1126)">
   <path d="M32.1777 15.3809L83.4473 15.3809C91.2598 15.3809 95.0684 11.5234 95.0684 2.97852L95.0684-36.6699C95.0684-44.2871 91.9434-48.1934 85.498-48.877L85.498-59.6191C85.498-78.8086 71.6797-88.2324 57.8125-88.2324C43.9453-88.2324 30.127-78.8086 30.127-59.6191L30.127-48.877C23.7305-48.1934 20.5566-44.2871 20.5566-36.6699L20.5566 2.97852C20.5566 11.5234 24.4629 15.3809 32.1777 15.3809ZM46.5332-59.9609C46.5332-67.334 50.9766-72.3145 57.8125-72.3145C64.6484-72.3145 69.0918-67.334 69.0918-59.9609L69.0918-48.9746L46.5332-48.9746Z"/>
  </g>
  <g id="Heavy-M" transform="matrix(1 0 0 1 2579.95 1126)">
   <path d="M31.6895 14.3555L81.7871 14.3555C89.2578 14.3555 92.8711 10.6445 92.8711 2.53906L92.8711-36.2305C92.8711-43.5059 89.8926-47.2656 83.7402-47.8516L83.7402-58.9844C83.7402-78.0273 70.3613-87.3047 56.7383-87.3047C43.1152-87.3047 29.7363-78.0273 29.7363-58.9844L29.7363-47.8027C23.7305-47.1191 20.5566-43.4082 20.5566-36.2305L20.5566 2.53906C20.5566 10.6445 24.2676 14.3555 31.6895 14.3555ZM44.0918-59.5215C44.0918-68.0176 49.3652-73.3887 56.7383-73.3887C64.1113-73.3887 69.3848-68.0176 69.3848-59.5215L69.3848-47.9492L44.0918-47.9492Z"/>
  </g>
  <g id="Bold-M" transform="matrix(1 0 0 1 2284.46 1126)">
   <path d="M31.1035 13.1836L79.9316 13.1836C87.0117 13.1836 90.4785 9.66797 90.4785 2.00195L90.4785-35.7422C90.4785-42.627 87.5977-46.1914 81.7871-46.7773L81.7871-58.3008C81.7871-77.0996 68.8477-86.2793 55.5176-86.2793C42.1875-86.2793 29.248-77.0996 29.248-58.3008L29.248-46.6797C23.6816-45.9473 20.6055-42.4316 20.6055-35.7422L20.6055 2.00195C20.6055 9.66797 24.0723 13.1836 31.1035 13.1836ZM41.4062-58.9844C41.4062-68.7988 47.5586-74.5605 55.5176-74.5605C63.4766-74.5605 69.6777-68.7988 69.6777-58.9844L69.6777-46.8262L41.4062-46.8262Z"/>
  </g>
  <g id="Semibold-M" transform="matrix(1 0 0 1 1988.58 1126)">
   <path d="M30.7129 12.4023L78.6621 12.4023C85.4492 12.4023 88.7695 9.0332 88.7695 1.66016L88.7695-35.4004C88.7695-42.041 86.0352-45.459 80.4199-45.9961L80.4199-57.8125C80.4199-76.4648 67.8223-85.5469 54.6875-85.5469C41.5527-85.5469 28.9551-76.4648 28.9551-57.8125L28.9551-45.8496C23.6328-45.1172 20.6055-41.748 20.6055-35.4004L20.6055 1.66016C20.6055 9.0332 23.9258 12.4023 30.7129 12.4023ZM39.502-58.6426C39.502-69.3359 46.2891-75.3418 54.6875-75.3418C63.0859-75.3418 69.873-69.3359 69.873-58.6426L69.873-46.0938L39.502-46.0449Z"/>
  </g>
  <g id="Medium-M" transform="matrix(1 0 0 1 1692.5 1126)">
   <path d="M30.3711 11.7676L77.7344 11.7676C84.2773 11.7676 87.5 8.54492 87.5 1.41602L87.5-35.1562C87.5-41.6016 84.8633-44.873 79.3945-45.4102L79.3945-57.4707C79.3945-76.0254 67.041-84.9609 54.0527-84.9609C41.0645-84.9609 28.7109-76.0254 28.7109-57.4707L28.7109-45.2637C23.6328-44.4824 20.6055-41.2598 20.6055-35.1562L20.6055 1.41602C20.6055 8.54492 23.8281 11.7676 30.3711 11.7676ZM38.0859-58.3496C38.0859-69.7266 45.3125-75.9766 54.0527-75.9766C62.7441-75.9766 70.0195-69.7266 70.0195-58.3496L70.0195-45.5078L38.0859-45.459Z"/>
  </g>
  <g id="Regular-M" transform="matrix(1 0 0 1 1396.62 1126)">
   <path d="M29.9805 10.9863L76.4648 10.9863C82.7637 10.9863 85.8398 7.86133 85.8398 1.02539L85.8398-34.8145C85.8398-40.9668 83.3008-44.1406 78.0762-44.6777L78.0762-56.9824C78.0762-75.3906 66.0156-84.2773 53.2227-84.2773C40.4297-84.2773 28.3691-75.3906 28.3691-56.9824L28.3691-44.4336C23.584-43.7012 20.6055-40.5762 20.6055-34.8145L20.6055 1.02539C20.6055 7.86133 23.6816 10.9863 29.9805 10.9863ZM36.2305-58.0078C36.2305-70.2637 44.0918-76.7578 53.2227-76.7578C62.3535-76.7578 70.2148-70.2637 70.2148-58.0078L70.2148-44.7266L36.2305-44.6777Z"/>
  </g>
  <g id="Light-M" transform="matrix(1 0 0 1 1100.11 1126)">
   <path d="M29.6875 10.9863L76.416 10.9863C82.6172 10.9863 85.6934 7.95898 85.6934 1.17188L85.6934-35.1562C85.6934-41.5527 82.959-44.6289 77.4414-44.9707L77.4414-56.7871C77.4414-73.9746 66.2598-83.3496 53.0273-83.3496C39.7949-83.3496 28.6133-73.9746 28.6133-56.7871L28.6133-44.873C23.3887-44.3359 20.3613-41.2598 20.3613-35.1562L20.3613 1.17188C20.3613 7.95898 23.4375 10.9863 29.6875 10.9863ZM34.668-57.373C34.668-70.1172 42.7246-77.6367 53.0273-77.6367C63.3301-77.6367 71.4355-70.1172 71.4355-57.373L71.4355-44.9707L34.668-44.9219Z"/>
  </g>
  <g id="Thin-M" transform="matrix(1 0 0 1 803.639 1126)">
   <path d="M29.248 10.9863L76.3184 10.9863C82.4707 10.9863 85.498 8.05664 85.498 1.31836L85.498-35.6445C85.498-42.2852 82.5684-45.2148 76.6602-45.3125L76.6602-56.4941C76.6602-72.168 66.6504-82.1777 52.7832-82.1777C38.916-82.1777 28.9062-72.168 28.9062-56.4941L28.9062-45.3125C23.0957-45.1172 20.0684-42.1875 20.0684-35.6445L20.0684 1.31836C20.0684 8.05664 23.0957 10.9863 29.248 10.9863ZM32.5195-56.5918C32.5195-69.873 40.8691-78.7598 52.7832-78.7598C64.6484-78.7598 73.0469-69.873 73.0469-56.5918L73.0469-45.3125L32.5195-45.3125Z"/>
  </g>
  <g id="Ultralight-M" transform="matrix(1 0 0 1 507.074 1126)">
   <path d="M29.0039 10.9863L76.2695 10.9863C82.373 10.9863 85.3516 8.10547 85.3516 1.41602L85.3516-35.8887C85.3516-42.627 82.373-45.5078 76.2695-45.5078L76.2207-45.5078L76.2207-56.3965C76.2207-71.1914 66.7969-81.5918 52.6367-81.5918C38.4766-81.5918 29.0527-71.1914 29.0527-56.3965L29.0527-45.5078L29.0039-45.5078C22.9004-45.5078 19.9219-42.627 19.9219-35.8887L19.9219 1.41602C19.9219 8.10547 22.9004 10.9863 29.0039 10.9863ZM31.4453-56.1523C31.4453-69.7754 39.9414-79.2969 52.6367-79.2969C65.2832-79.2969 73.8281-69.7754 73.8281-56.1523L73.8281-45.5078L31.4453-45.5078Z"/>
  </g>
  <g id="Black-S" transform="matrix(1 0 0 1 2888.19 696)">
   <path d="M25.1953 4.3457L65.2344 4.3457C71.3379 4.3457 74.3164 1.31836 74.3164-5.32227L74.3164-36.3281C74.3164-42.2852 71.875-45.3125 66.8457-45.8008L66.8457-54.2969C66.8457-69.3359 56.0547-76.709 45.2148-76.709C34.375-76.709 23.584-69.3359 23.584-54.2969L23.584-45.8008C18.6035-45.3125 16.1133-42.2852 16.1133-36.3281L16.1133-5.32227C16.1133 1.31836 19.1406 4.3457 25.1953 4.3457ZM36.2793-54.5898C36.2793-60.4492 39.8438-64.3555 45.2148-64.3555C50.5859-64.3555 54.1504-60.4492 54.1504-54.5898L54.1504-45.8984L36.2793-45.8984Z"/>
  </g>
  <g id="Heavy-S" transform="matrix(1 0 0 1 2592.28 696)">
   <path d="M24.8535 3.56445L63.9648 3.56445C69.8242 3.56445 72.6562 0.634766 72.6562-5.66406L72.6562-35.9375C72.6562-41.6016 70.3613-44.5312 65.5762-45.0195L65.5762-53.8574C65.5762-68.8477 54.9805-76.0742 44.4336-76.0742C33.8379-76.0742 23.2422-68.8477 23.2422-53.8574L23.2422-44.9707C18.6035-44.4336 16.1621-41.5039 16.1621-35.9375L16.1621-5.66406C16.1621 0.634766 19.043 3.56445 24.8535 3.56445ZM34.6191-54.2969C34.6191-60.9863 38.7695-65.0879 44.4336-65.0879C50.0488-65.0879 54.1992-60.9863 54.1992-54.2969L54.1992-45.1172L34.6191-45.1172Z"/>
  </g>
  <g id="Bold-S" transform="matrix(1 0 0 1 2296.47 696)">
   <path d="M24.4141 2.63672L62.5977 2.63672C68.1152 2.63672 70.8496-0.0976562 70.8496-6.10352L70.8496-35.5469C70.8496-40.8691 68.6523-43.6523 64.1602-44.1406L64.1602-53.3203C64.1602-68.3594 53.8086-75.3906 43.5059-75.3906C33.2031-75.3906 22.8516-68.3594 22.8516-53.3203L22.8516-44.043C18.6035-43.4082 16.2109-40.6738 16.2109-35.5469L16.2109-6.10352C16.2109-0.0976562 18.8965 2.63672 24.4141 2.63672ZM32.7148-54.0039C32.7148-61.6211 37.5488-65.8691 43.5059-65.8691C49.4629-65.8691 54.2969-61.6211 54.2969-54.0039L54.2969-44.2383L32.7148-44.1895Z"/>
  </g>
  <g id="Semibold-S" transform="matrix(1 0 0 1 2000.37 696)">
   <path d="M24.1699 2.05078L61.6211 2.05078C66.9434 2.05078 69.5801-0.585938 69.5801-6.39648L69.5801-35.2539C69.5801-40.3809 67.4805-43.0664 63.1836-43.5547L63.1836-52.9785C63.1836-67.9688 53.0273-74.9023 42.8711-74.9023C32.7637-74.9023 22.6074-67.9688 22.6074-52.9785L22.6074-43.4082C18.6035-42.7246 16.2109-40.0879 16.2109-35.2539L16.2109-6.39648C16.2109-0.585938 18.8477 2.05078 24.1699 2.05078ZM31.4453-53.7598C31.4453-62.0117 36.6699-66.4062 42.8711-66.4062C49.0723-66.4062 54.3457-62.0117 54.3457-53.7598L54.3457-43.6035L31.4453-43.5547Z"/>
  </g>
  <g id="Medium-S" transform="matrix(1 0 0 1 1704.15 696)">
   <path d="M23.9258 1.5625L60.8887 1.5625C66.0645 1.5625 68.6035-0.976562 68.6035-6.5918L68.6035-35.0098C68.6035-39.9902 66.5527-42.5781 62.4512-43.0664L62.4512-52.7344C62.4512-67.7246 52.3926-74.5605 42.4316-74.5605C32.4219-74.5605 22.4121-67.7246 22.4121-52.7344L22.4121-42.9199C18.5547-42.1875 16.2109-39.6484 16.2109-35.0098L16.2109-6.5918C16.2109-0.976562 18.7988 1.5625 23.9258 1.5625ZM30.4688-53.6133C30.4688-62.3535 36.0352-66.8457 42.4316-66.8457C48.7793-66.8457 54.3945-62.3535 54.3945-53.6133L54.3945-43.1641L30.4688-43.1152Z"/>
  </g>
  <g id="Regular-S" transform="matrix(1 0 0 1 1408.05 696)">
   <path d="M23.6816 0.976562L59.9609 0.976562C64.8926 0.976562 67.334-1.51367 67.334-6.88477L67.334-34.7168C67.334-39.4531 65.4297-41.9922 61.4746-42.4805L61.4746-52.3438C61.4746-67.3828 51.6113-74.0723 41.7969-74.0723C32.0312-74.0723 22.1191-67.3828 22.1191-52.3438L22.1191-42.2363C18.5547-41.5039 16.2598-39.0625 16.2598-34.7168L16.2598-6.88477C16.2598-1.51367 18.7012 0.976562 23.6816 0.976562ZM29.1992-53.3691C29.1992-62.7441 35.2051-67.3828 41.7969-67.3828C48.3887-67.3828 54.4434-62.7441 54.4434-53.3691L54.4434-42.5293L29.1992-42.4805Z"/>
  </g>
  <g id="Light-S" transform="matrix(1 0 0 1 1111.51 696)">
   <path d="M23.3887 0.976562L59.8633 0.976562C64.7949 0.976562 67.1875-1.41602 67.1875-6.78711L67.1875-35.0586C67.1875-39.9414 65.1367-42.4316 60.9375-42.7246L60.9375-52.1973C60.9375-66.1133 51.8555-73.291 41.6504-73.291C31.4453-73.291 22.3145-66.1133 22.3145-52.1973L22.3145-42.627C18.4082-42.0898 16.0645-39.6973 16.0645-35.0586L16.0645-6.78711C16.0645-1.41602 18.457 0.976562 23.3887 0.976562ZM27.7832-52.832C27.7832-62.5977 33.9844-68.1152 41.6504-68.1152C49.2676-68.1152 55.5176-62.5977 55.5176-52.832L55.5176-42.7734L27.7832-42.7246Z"/>
  </g>
  <g id="Thin-S" transform="matrix(1 0 0 1 815.016 696)">
   <path d="M22.998 0.976562L59.8145 0.976562C64.6484 0.976562 67.041-1.31836 67.041-6.64062L67.041-35.4492C67.041-40.625 64.7949-42.9688 60.2051-43.0664L60.2051-51.9531C60.2051-64.502 52.1484-72.2656 41.4062-72.2656C30.6641-72.2656 22.6074-64.502 22.6074-51.9531L22.6074-43.0176C18.1641-42.8223 15.8203-40.5273 15.8203-35.4492L15.8203-6.64062C15.8203-1.31836 18.1641 0.976562 22.998 0.976562ZM25.8789-52.0996C25.8789-62.4512 32.373-69.0918 41.4062-69.0918C50.3906-69.0918 56.9336-62.4512 56.9336-52.0996L56.9336-43.0664L25.8789-43.0664Z"/>
  </g>
  <g id="Ultralight-S" transform="matrix(1 0 0 1 518.403 696)">
   <path d="M22.8027 0.976562L59.7656 0.976562C64.5996 0.976562 66.9434-1.26953 66.9434-6.54297L66.9434-35.6934C66.9434-40.918 64.5996-43.2129 59.8633-43.2129L59.8633-51.8555C59.8633-63.6719 52.3438-71.7285 41.3086-71.7285C30.2734-71.7285 22.7539-63.6719 22.7539-51.8555L22.7539-43.2129C18.0664-43.2129 15.6738-40.9668 15.6738-35.6934L15.6738-6.54297C15.6738-1.26953 18.0176 0.976562 22.8027 0.976562ZM24.9512-51.7578C24.9512-62.3047 31.543-69.6289 41.3086-69.6289C50.9766-69.6289 57.666-62.3047 57.666-51.7578L57.666-43.2129L24.9512-43.2129Z"/>
  </g>
 </g>
</svg>
